<svg xmlns="http://www.w3.org/2000/svg" width="900" height="800" viewBox="0 0 90 80">
  <title>Kitchen Rube Active Field Concept</title>
  <desc>Conceptual 90 inch by 80 inch active field. Coordinates are inches.</desc>

  <rect x="0" y="0" width="90" height="80" fill="#f7f5f0" stroke="#222" stroke-width="0.2"/>

  <rect x="0" y="0" width="10" height="80" fill="#e8eef5" stroke="#557" stroke-width="0.15"/>
  <text x="1" y="4" font-size="2.2">trigger column</text>

  <rect x="68" y="12" width="18" height="48" fill="#f5eadf" stroke="#755" stroke-width="0.15"/>
  <text x="70" y="16" font-size="2.2">gong court</text>

  <circle cx="74" cy="25" r="4" fill="none" stroke="#222" stroke-width="0.25"/>
  <text x="70.5" y="25.5" font-size="1.8">high</text>

  <circle cx="80" cy="38" r="5" fill="none" stroke="#222" stroke-width="0.25"/>
  <text x="76.5" y="38.5" font-size="1.8">medium</text>

  <circle cx="73" cy="53" r="6" fill="none" stroke="#222" stroke-width="0.25"/>
  <text x="70" y="53.5" font-size="1.8">low</text>

  <rect x="0" y="68" width="90" height="12" fill="#f6d6d6" opacity="0.35"/>
  <text x="2" y="75" font-size="2">lower caution band: outlet / people / baseboard</text>

  <path d="M 9 12 C 24 8, 35 18, 48 14 S 67 18, 73 25" fill="none" stroke="#b33" stroke-width="0.35"/>
  <path d="M 9 26 C 24 30, 30 44, 48 39 S 68 31, 80 38" fill="none" stroke="#397" stroke-width="0.35"/>
  <path d="M 9 42 C 20 60, 45 56, 55 48 S 65 53, 73 53" fill="none" stroke="#35c" stroke-width="0.35"/>

  <text x="18" y="22" font-size="2">entangled mechanism field</text>
  <text x="16" y="66" font-size="1.8">placeholder routes only; not final tracks</text>
</svg>
